# xmcd CD database file
#
# Track frame offsets:
#	180
#	13515
#	31670
#	42585
#	56890
#	69155
#	87805
#	102845
#	117740
#	146530
#	158860
#	174460
#
# Disc length: 2559 seconds
#
# Revision: 2
# Processed by: cddbd v1.5PL3 Copyright (c) Steve Scherf et al.
# Submitted via: cdripper 1.0.7
#
DISCID=9b09fd0c
DTITLE=Harmonica Fats and Bernie Pearl - Two Heads are Better Than One
DYEAR=1994
DGENRE=Blues
TTITLE0=Just Like Richard Nixon
TTITLE1=You've got Your Mouth Stuck Out
TTITLE2=Blabbermouth Man
TTITLE3=You Must be Crazy
TTITLE4=Soul food
TTITLE5=Downtime Blues
TTITLE6=Everyday A Working Day For Me
TTITLE7=LA Shake
TTITLE8=I Know She Crazy bout me Too
TTITLE9=Blues March
TTITLE10=The Top Show
TTITLE11=Vampire blues
EXTD=YEAR: 1994
EXTT0=
EXTT1=
EXTT2=
EXTT3=
EXTT4=
EXTT5=
EXTT6=
EXTT7=
EXTT8=
EXTT9=
EXTT10=
EXTT11=
PLAYORDER=
